<?xml version="1.0" encoding="UTF-8"?><svg id="Layer_1" xmlns="http://www.w3.org/2000/svg" viewBox="0 0 1200 1200"><defs><style>.cls-1{fill:#fff;stroke-width:0px;}</style></defs><path class="cls-1" d="M485.63,528.19h52.73v20.39c9.68-10.15,18.27-17.11,25.78-20.85,7.65-3.9,16.71-5.86,27.18-5.86,13.9,0,28.43,4.53,43.59,13.59l-24.14,48.28c-10-7.18-19.77-10.78-29.3-10.78-28.75,0-43.12,21.73-43.12,65.16v118.35h-52.73v-228.27Z"/><path class="cls-1" d="M869.06,568.4l-35.22,35.22c7.06,11.35,11.21,24.7,11.21,39.05,0,40.92-33.17,74.09-74.09,74.09-14.35,0-27.7-4.15-39.05-11.21l-35.22,35.22c20.66,15.67,46.34,25.08,74.27,25.08,68.03,0,123.17-55.15,123.17-123.17,0-27.93-9.41-53.61-25.08-74.27Z"/><path class="cls-1" d="M672.87,716.95l35.22-35.22c-7.06-11.35-11.21-24.7-11.21-39.05,0-40.92,33.17-74.09,74.09-74.09,14.35,0,27.7,4.15,39.05,11.21l35.22-35.22c-20.66-15.67-46.34-25.08-74.27-25.08-68.03,0-123.17,55.15-123.17,123.17,0,27.93,9.41,53.61,25.08,74.27Z"/><path class="cls-1" d="M322.28,521.86c-26.71,0-50.62,10.93-71.72,32.81v-120.52h-52.72v322.3h52.72v-23.91c20.78,20.32,44.37,30.47,70.78,30.47,31.24,0,57.1-11.41,77.57-34.22,20.62-22.96,30.94-52.03,30.94-87.18s-10.23-62.49-30.7-85.31c-20.47-22.96-46.1-34.44-76.87-34.44ZM357.67,695.52c-12.03,13.59-27.18,20.39-45.46,20.39-19.38,0-35-6.8-46.88-20.39-11.88-13.27-17.8-31.01-17.8-53.2s6.01-39.05,18.04-52.49c12.19-13.6,27.97-20.39,47.34-20.39,18.12,0,33.2,7.02,45.24,21.09,11.87,13.75,17.8,31.57,17.8,53.43,0,20.62-6.09,37.81-18.28,51.56Z"/><rect class="cls-1" x="949.42" y="434.15" width="52.73" height="322.3"/></svg>